<?xml version="1.0" encoding="UTF-8"?>
<!-- Generator: Adobe Illustrator 16.0.0, SVG Export Plug-In . SVG Version: 6.00 Build 0)  -->
<!DOCTYPE svg PUBLIC "-//W3C//DTD SVG 1.1//EN" "http://www.w3.org/Graphics/SVG/1.1/DTD/svg11.dtd">
<svg version="1.1" id="Layer_1" xmlns="http://www.w3.org/2000/svg" xmlns:xlink="http://www.w3.org/1999/xlink" x="0px" y="0px" width="271.86px" height="41.61px" viewBox="0 0 271.86 41.61" enable-background="new 0 0 271.86 41.61" xml:space="preserve">
<g>
	<polygon fill="#FFFFFF" points="225.025,31.738 224.498,1.239 234.123,1.239 234.123,39.691 220.283,39.691 210.695,8.142    210.48,8.142 211.016,39.691 201.461,39.691 201.461,1.239 215.885,1.239 224.814,31.738  "/>
	<polygon fill="#FFFFFF" points="50.211,4.84 44.9,40.092 34.398,40.092 41.598,1.239 58.885,1.239 66.047,40.092 55.607,40.092    50.428,4.837  "/>
	<polygon fill="#FFFFFF" points="95.512,30.949 100.307,1.239 116.146,1.239 117.004,40.092 107.287,40.092 107.041,5.164    106.828,5.171 100.336,40.092 90.475,40.092 83.986,5.164 83.77,5.164 83.527,40.092 73.805,40.092 74.66,1.239 90.506,1.239    95.295,30.949  "/>
	<path fill="#FFFFFF" d="M18.045,29.131c0.379,0.939,0.258,2.145,0.078,2.875c-0.318,1.295-1.197,2.613-3.785,2.613   c-2.432,0-3.906-1.404-3.906-3.521l-0.008-3.766H0.006L0,30.328c0,8.666,6.822,11.283,14.121,11.283   c7.033,0,12.811-2.398,13.734-8.883c0.475-3.354,0.125-5.551-0.041-6.371c-1.639-8.135-16.381-10.562-17.48-15.109   c-0.188-0.791-0.141-1.609-0.043-2.044c0.277-1.247,1.121-2.609,3.549-2.609c2.277,0,3.609,1.405,3.609,3.521   c0,0.72,0,2.406,0,2.406h9.697V9.784c0-8.46-7.602-9.785-13.1-9.785C7.141,0,1.492,2.287,0.461,8.625   c-0.281,1.734-0.32,3.284,0.09,5.24C2.236,21.806,16.043,24.102,18.045,29.131z"/>
	<path fill="#FFFFFF" d="M144.367,29.057c0.371,0.932,0.256,2.121,0.074,2.844c-0.314,1.279-1.184,2.584-3.748,2.584   c-2.406,0-3.868-1.387-3.868-3.486l-0.006-3.725h-10.316l-0.004,2.965c0,8.58,6.756,11.172,13.982,11.172   c6.959,0,12.684-2.373,13.596-8.797c0.469-3.316,0.125-5.49-0.039-6.307c-1.627-8.055-16.221-10.458-17.307-14.963   c-0.189-0.774-0.141-1.586-0.047-2.016c0.275-1.233,1.114-2.582,3.514-2.582c2.258,0,3.576,1.383,3.576,3.482   c0,0.71,0,2.379,0,2.379h9.602V9.902c0-8.377-7.529-9.688-12.973-9.688c-6.832,0-12.428,2.263-13.443,8.538   c-0.283,1.715-0.322,3.252,0.088,5.187C128.713,21.804,142.385,24.074,144.367,29.057z"/>
	<path fill="#FFFFFF" d="M176.984,34.275c2.701,0,3.533-1.861,3.723-2.816c0.084-0.42,0.1-0.984,0.094-1.484V1.229h9.834v27.86   c0.014,0.717-0.061,2.176-0.1,2.557c-0.678,7.252-6.41,9.602-13.551,9.602c-7.145,0-12.877-2.35-13.559-9.602   c-0.035-0.381-0.109-1.84-0.09-2.557V1.229h9.826v28.745c-0.008,0.5,0.012,1.064,0.094,1.484   C173.445,32.414,174.281,34.275,176.984,34.275z"/>
	<path fill="#FFFFFF" d="M258.023,33.871c2.813,0,3.795-1.781,3.971-2.82c0.078-0.438,0.1-0.98,0.094-1.475v-5.641h-3.984v-5.665   h13.762v10.415c-0.006,0.73-0.021,1.268-0.139,2.559c-0.643,7.076-6.777,9.602-13.664,9.602c-6.889,0-13.02-2.525-13.668-9.602   c-0.113-1.291-0.131-1.828-0.135-2.559l0.004-16.345c0-0.693,0.084-1.911,0.164-2.56c0.865-7.262,6.746-9.6,13.639-9.6   c6.889,0,12.92,2.315,13.637,9.6c0.125,1.237,0.082,2.56,0.088,2.56v1.294h-9.797v-2.179c0.004,0.003-0.008-0.92-0.123-1.479   c-0.176-0.856-0.912-2.819-3.883-2.819c-2.826,0-3.656,1.86-3.871,2.819c-0.111,0.511-0.156,1.205-0.156,1.837v17.763   c-0.006,0.494,0.016,1.037,0.09,1.475C254.23,32.09,255.213,33.871,258.023,33.871z"/>
</g>
</svg>